<svg data-v-423bf9ae="" xmlns="http://www.w3.org/2000/svg" viewBox="0 0 315 90" class="iconLeft"><!----><!----><!----><g data-v-423bf9ae="" id="64b5248b-dba1-44cb-a266-4df7b0b44bf8" fill="#361414" transform="matrix(5.7526364568010235,0,0,5.7526364568010235,103.90220840783928,13.389263007133255)"><path d="M8.30 7.01L8.30 0.49L6.31 0.49L6.31 7C6.31 9.10 3.07 9.10 3.07 7L3.07 0.49L1.06 0.49L1.06 7.01C1.06 11.77 8.30 11.77 8.30 7.01L8.30 7.01ZM12.52 5.05L12.52 5.05L17.58 10.71L18.12 10.71L18.12 0.50L16.10 0.50L16.10 6.16L11.05 0.28L10.51 0.28L10.51 10.50L12.52 10.50L12.52 5.05ZM27.62 10.50L27.62 10.50L25.30 6.37C28.24 5.52 27.89 0.49 24.32 0.49L20.37 0.49L20.37 10.50L22.37 10.50L22.37 6.68L23.34 6.68L25.35 10.50ZM22.37 2.49L24.14 2.49C25.49 2.49 25.49 4.73 24.14 4.73L22.37 4.73L22.37 4.73ZM27.92 10.50L27.92 10.50L30.35 10.50L32.28 7.07L34.20 10.50L36.57 10.50L33.42 5.17L36.15 0.48L33.78 0.48L32.28 3.26L30.77 0.48L28.35 0.48L31.07 5.17L27.92 10.50Z"></path></g><defs data-v-423bf9ae=""><linearGradient data-v-423bf9ae="" gradientTransform="rotate(25)" id="414fffec-7453-408e-8d04-cedbd9dc177b" x1="0%" y1="0%" x2="100%" y2="0%"><stop data-v-423bf9ae="" offset="0%" style="stop-color: rgb(240, 0, 121); stop-opacity: 1;"></stop><stop data-v-423bf9ae="" offset="100%" style="stop-color: rgb(242, 160, 65); stop-opacity: 1;"></stop></linearGradient></defs><g data-v-423bf9ae="" id="9b04a4c4-5b2e-4149-bcfd-7c81bdfdb41a" transform="matrix(2.8125,0,0,2.8125,0,0)" stroke="none" fill="url(#414fffec-7453-408e-8d04-cedbd9dc177b)"><path d="M16 32c8.837 0 16-7.163 16-16S24.837 0 16 0 0 7.163 0 16s7.163 16 16 16zM14.817 6.421h2v8.886h8.887v2H14.817V6.421zm-5.959.437h2v14.283h14.283v2H8.858V6.858z"></path></g><!----></svg>