<svg id="svg" xmlns="http://www.w3.org/2000/svg" xmlns:xlink="http://www.w3.org/1999/xlink" width="400" height="400" viewBox="0, 0, 400,400"><g id="svgg"><path id="path0" d="M110.174 23.367 C 110.174 67.161,103.813 80.253,60.655 125.281 C 43.679 142.993,43.249 145.966,56.801 151.906 C 73.300 159.137,89.169 153.612,113.321 132.226 C 149.706 100.008,152.166 98.617,167.204 101.764 C 185.171 105.523,189.313 110.529,231.248 179.156 C 278.933 257.192,287.705 270.868,294.315 277.478 C 304.047 287.210,317.983 292.743,332.878 292.787 L 338.710 292.804 338.161 290.074 C 337.859 288.573,323.235 257.419,305.664 220.844 C 231.274 65.997,225.023 52.457,211.383 16.625 L 205.055 0.000 157.614 0.000 L 110.174 0.000 110.174 23.367 M162.086 126.690 C 158.527 129.709,79.611 251.261,75.669 259.793 C 68.871 274.508,72.636 288.750,84.823 294.425 C 96.100 299.676,90.877 305.194,152.816 222.612 C 205.953 151.766,204.211 154.567,199.344 147.792 C 187.797 131.721,168.822 120.974,162.086 126.690 M36.018 333.005 C 37.250 344.946,45.146 355.982,56.433 361.539 L 62.985 364.764 199.979 364.764 L 336.973 364.764 343.149 361.911 C 354.686 356.582,362.934 345.299,364.016 333.363 L 364.544 327.543 199.999 327.543 L 35.454 327.543 36.018 333.005 " stroke="none" fill="#fff" fill-rule="evenodd"></path></g></svg>
